<?xml version="1.0" standalone="no"?><!DOCTYPE svg PUBLIC "-//W3C//DTD SVG 1.1//EN" "http://www.w3.org/Graphics/SVG/1.1/DTD/svg11.dtd"><svg t="1720891847712" class="icon" viewBox="0 0 1024 1024" version="1.1" xmlns="http://www.w3.org/2000/svg" p-id="5603" xmlns:xlink="http://www.w3.org/1999/xlink" width="200" height="200"><path d="M961.892 823.376c-7.752 62.1-67.604 121.948-129.704 129.7-207.584 24.316-415.168 24.316-622.752 0-62.1-7.752-121.952-67.6-129.704-129.7-24.32-207.584-24.32-415.168 0-622.752 7.752-62.1 67.6-121.956 129.704-129.708 207.584-24.316 415.168-24.316 622.752 0 62.1 7.752 121.948 67.608 129.704 129.708 24.312 207.584 24.312 415.168 0 622.752z" fill="#5F7086" p-id="5604"></path><path d="M262.912 555.004a18382.64 18382.64 0 0 0 146.512-144.796c-16.08 16.08-42.016 16.24-57.788 0.588a58581.588 58581.588 0 0 1 138.824 138.38 40.936 40.936 0 0 0 57.976 0.004 56291.2 56291.2 0 0 1 271.328-269.632c14.9-14.656 13.212-39.56-3.344-56.104-16.56-16.536-41.508-18.224-56.188-3.36a71516.492 71516.492 0 0 1-269.784 271.128 41 41 0 0 1 58 0 78520.156 78520.156 0 0 1-138.436-138.744c-15.664-15.76-41.284-15.252-57.48 0.92a12036.32 12036.32 0 0 1-147.78 145.14c-16.084 15.512-15.988 40.348 0.192 55.968 16.184 15.612 42.104 16.04 57.968 0.508z" fill="#FF6363" p-id="5605"></path><path d="M216.248 706.216c25.156 1.108 50.312 2.08 75.468 2.924 0.84 25.032 1.836 50.068 2.992 75.104a4837 4837 0 0 1-74.48-4.04c-1.544-24.664-2.868-49.328-3.98-73.988zM721.612 710.024c25.156-0.736 50.312-1.612 75.468-2.616-1.008 24.816-2.208 49.628-3.6 74.44-24.832 1.4-49.656 2.6-74.488 3.612 1.008-25.148 1.88-50.296 2.62-75.44zM553.152 712.872c25.16-0.116 50.316-0.376 75.472-0.768-0.392 25.412-0.86 50.82-1.408 76.232-24.828 0.544-49.656 0.896-74.48 1.06 0.16-25.504 0.304-51.012 0.416-76.524zM387.392 711.66c25.16 0.48 50.316 0.836 75.476 1.044 0.208 25.488 0.46 50.972 0.752 76.464-24.824-0.288-49.652-0.772-74.484-1.444-0.672-25.36-1.252-50.712-1.744-76.064z" fill="#B0B5B5" p-id="5606"></path></svg>