<?xml version="1.0" standalone="no"?><!DOCTYPE svg PUBLIC "-//W3C//DTD SVG 1.1//EN" "http://www.w3.org/Graphics/SVG/1.1/DTD/svg11.dtd"><svg t="1720892131370" class="icon" viewBox="0 0 1024 1024" version="1.1" xmlns="http://www.w3.org/2000/svg" p-id="6258" xmlns:xlink="http://www.w3.org/1999/xlink" width="200" height="200"><path d="M545.118316 16.208842c-17.84814-16.797193-46.475228-16.797193-64.318877 0C348.011789 140.87186 201.745965 273.08014 57.465263 393.741474 38.063158 410.004211 21.670175 442.18386 21.360281 465.551719c-2.398316 160.682667 6.961404 321.356351 28.08814 482.039018 3.125895 23.340912 25.092491 45.527579 48.442386 48.887017a2981.717333 2981.717333 0 0 0 251.17193 24.760141c23.354386 1.329404 41.768421-18.414035 41.013895-43.466106a14231.421754 14231.421754 0 0 1-6.575158-297.058807c-0.314386-25.034105 20.03986-45.329965 45.127859-45.195228 56.221193 0.336842 112.446877 0.336842 168.672562 0 25.083509-0.134737 45.428772 20.165614 45.118877 45.195228a14197.710596 14197.710596 0 0 1-6.575158 297.058807c-0.750035 25.056561 17.664 44.795509 41.018386 43.466106a2979.673825 2979.673825 0 0 0 251.17193-24.760141c23.354386-3.368421 45.316491-25.546105 48.451368-48.887017 21.122246-160.682667 30.481965-321.356351 28.083649-482.043509-0.314386-23.363368-16.707368-55.543018-36.113965-71.805754-144.280702-120.661333-290.551018-252.869614-423.338666-377.532632z" fill="#84ADDD" p-id="6259"></path></svg>