<?xml version="1.0" standalone="no"?><!DOCTYPE svg PUBLIC "-//W3C//DTD SVG 1.1//EN" "http://www.w3.org/Graphics/SVG/1.1/DTD/svg11.dtd"><svg t="1720891973406" class="icon" viewBox="0 0 1024 1024" version="1.1" xmlns="http://www.w3.org/2000/svg" p-id="6088" xmlns:xlink="http://www.w3.org/1999/xlink" width="200" height="200"><path d="M323.4824 158.8156c-0.632 10.724-9.72 20.12-20.236 20.948-11.464 0.92-22.924 1.912-34.388 2.968-10.52 0.96-18.456-6.784-17.58-17.28 1.588-19.352 3.312-38.7 5.176-58.048 1.028-10.496 10.232-20.216 20.408-21.488 11.116-1.372 22.232-2.66 33.344-3.856 10.176-1.108 17.864 6.852 17.12 17.576-1.38 19.72-2.664 39.452-3.84 59.18z" fill="#777A7A" p-id="6089"></path><path d="M810.8784 132.6036c1.944 20.972-13.82 36.368-34.796 34.54a2724.764 2724.764 0 0 0-308.288-10.14c-20.976 0.48-37.608-16.696-36.872-38.492 0.42-13.224 0.86-26.444 1.32-39.668 0.816-21.792 17.98-40.564 38.04-41.24 98.8-3.284 197.608 1.26 296.412 13.624 20.064 2.56 38.424 22.188 40.568 43.152 1.26 12.74 2.468 25.484 3.616 38.224z" fill="#B0B5B5" p-id="6090"></path><path d="M928.3264 825.4436c-7.6 59.724-65.228 119.68-125.04 128.892-180.528 26.12-361.06 26.12-541.588 0-59.816-9.208-117.44-69.168-125.04-128.892-22.432-189.068-24.992-378.136-7.692-567.2C134.8384 198.4996 192.5144 140.3356 254.1064 132.5996c185.592-21.68 371.18-21.68 556.772 0 61.592 7.728 119.268 65.9 125.14 125.632 17.304 189.072 14.74 378.14-7.692 567.208z" fill="#E1E8E8" p-id="6091"></path><path d="M839.3504 645.6156c-0.736 20.08-18.54 37.512-39.336 38.572a5471.112 5471.112 0 0 1-359.596 5.76c-20.796-0.364-38.16-17.9-38.48-38.796a9943.68 9943.68 0 0 1 0.944-346.064c0.448-20.896 17.748-38.56 38.352-39.024 118.8-2.612 237.6-0.124 356.4 7.46 20.604 1.36 38.472 19.08 39.484 39.152a3917.052 3917.052 0 0 1 2.224 332.936l0.008 0.004z" fill="#9A9E9E" p-id="6092"></path><path d="M203.1784 431.5356c34.488-0.856 68.98-1.572 103.472-2.16-1.076 79.116-0.472 158.224 1.816 237.332-34.212-1.24-68.424-2.772-102.64-4.584a3617.252 3617.252 0 0 1-2.648-230.588z" fill="#00CCC6" p-id="6093"></path><path d="M262.7824 779.8476c26.76 2.04 49.464 25.16 50.992 52.068 1.508 26.9-18.068 46.844-44 43.952-25.92-2.9-49.168-26.848-51.508-52.868-2.344-26.04 17.776-45.164 44.52-43.152z" fill="#F06262" p-id="6094"></path><path d="M511.3704 819.8476a3081.248 3081.248 0 0 0 328.344-15.304 3755.82 3755.82 0 0 1-3.964 46.36 2604.256 2604.256 0 0 1-324.108 17.668c-0.092-16.24-0.188-32.48-0.272-48.724zM410.5704 817.4956c19.84 0.792 39.68 1.388 59.52 1.792 0.252 16.212 0.52 32.424 0.808 48.636a2599.328 2599.328 0 0 1-58.76-2.064c-0.56-16.12-1.084-32.24-1.572-48.36z" fill="#9A9E9E" p-id="6095"></path><path d="M623.3584 329.0756c82.932 1.72 153.104 71.352 153.664 152.608 0.28 81.268-69.664 150.052-153.148 151.42-83.52 0.972-152.02-68.108-152.048-152.072 0.3-83.952 68.572-153.292 151.532-151.956z" fill="#424242" p-id="6096"></path><path d="M624.6384 415.1276c37.224 0.36 67.812 30.748 67.936 67.584 0.096 36.84-30.392 67.004-67.72 67.212-37.328 0.176-67.588-30.112-67.608-67.488 0-37.368 30.168-67.632 67.392-67.308z" p-id="6097"></path><path d="M582.9984 411.0276c15.316 0.08 27.812 12.596 27.88 27.92 0.06 15.32-12.372 27.716-27.74 27.692a27.908 27.908 0 0 1-27.848-27.876c-0.012-15.372 12.392-27.808 27.708-27.736z" fill="#666666" p-id="6098"></path><path d="M644.0264 493.7356c7.536 0.008 13.648 6.08 13.644 13.56 0 7.472-6.12 13.548-13.652 13.56a13.58 13.58 0 0 1-13.636-13.56 13.592 13.592 0 0 1 13.64-13.56z" fill="#FFFFFF" opacity=".21" p-id="6099"></path></svg>