<?xml version="1.0" standalone="no"?><!DOCTYPE svg PUBLIC "-//W3C//DTD SVG 1.1//EN" "http://www.w3.org/Graphics/SVG/1.1/DTD/svg11.dtd"><svg t="1721096536693" class="icon" viewBox="0 0 1253 1024" version="1.1" xmlns="http://www.w3.org/2000/svg" p-id="2931" xmlns:xlink="http://www.w3.org/1999/xlink" width="244.7265625" height="200"><path d="M773.052082 82.32751c93.622857 3.108571 190.307265 59.559184 280.189387 137.984 88.173714 79.130122 169.534694 180.244898 192.961307 288.736653 51.064163 211.011918-167.340408 427.133388-427.008 443.036735-260.059429 9.910857-476.045061-206.116571-450.847347-438.820571C379.209143 395.493878 443.381551 287.399184 517.522286 207.934694c75.859592-79.171918 161.697959-129.713633 255.529796-125.612408z" fill="#D8D8D8" p-id="2932"></path><path d="M798.746122 375.243755c72.484571 0.783673 140.517878 62.652082 148.950205 137.837714 8.244245 75.149061-53.185306 138.835592-134.185796 140.418613-81.04751 1.421061-146.708898-61.727347-146.661878-139.070694 0.318694-77.369469 59.376327-139.786449 131.897469-139.180408z" fill="#DDDDDD" p-id="2933"></path><path d="M210.364082 40.531592C442.399347-1.060571 674.429388-9.560816 906.464653 15.036082c85.159184 324.341551 125.612408 652.674612 121.349225 984.993959-340.88751 36.137796-681.77502 23.651265-1022.667756-37.459592C-2.053224 655.229388 66.356245 347.883102 210.364082 40.536816z" fill="#F5A623" opacity=".88" p-id="2934"></path><path d="M925.722122 91.60098c8.108408 0.679184 16.222041 1.374041 24.325225 2.105469 72.949551 277.514449 110.064327 557.682939 111.333877 840.500245-11.096816 1.118041-22.193633 2.194286-33.290448 3.218286-1.165061-284.88098-35.291429-566.820571-102.368654-845.824z" fill="#000000" opacity=".06" p-id="2935"></path><path d="M210.364082 40.531592a2530.168163 2530.168163 0 0 1 121.667918-18.771592c-103.962122 319.858939-153.338776 642.66449-148.140408 968.395755a3715.855673 3715.855673 0 0 1-178.74547-27.585306C-2.053224 655.229388 66.356245 347.883102 210.364082 40.536816z" fill="#000000" opacity=".135" p-id="2936"></path></svg>